<svg width="195" height="13" viewBox="0 0 195 13" fill="none" xmlns="http://www.w3.org/2000/svg">
<path d="M21.7533 9.57667C23.8377 9.57667 24.96 8.45433 24.96 6.37V3.20667C24.96 1.12233 23.8377 0 21.7533 0H0V13H2.94667V9.57667H21.7533ZM22.0133 3.38V6.19667C22.0133 6.53467 21.8313 6.71667 21.4933 6.71667H2.94667V2.86H21.4933C21.8313 2.86 22.0133 3.042 22.0133 3.38ZM31.8933 13C29.809 13 28.6867 11.8777 28.6867 9.79333V3.20667C28.6867 1.12233 29.809 0 31.8933 0H49.9633C52.0477 0 53.17 1.12233 53.17 3.20667V9.79333C53.17 11.8777 52.0477 13 49.9633 13H31.8933ZM49.7033 10.14C50.0413 10.14 50.2233 9.958 50.2233 9.62V3.38C50.2233 3.042 50.0413 2.86 49.7033 2.86H32.1533C31.8153 2.86 31.6333 3.042 31.6333 3.38V9.62C31.6333 9.958 31.8153 10.14 32.1533 10.14H49.7033ZM78.9533 8.58C80.6799 9.30614 81.8936 11.011 81.9 13H78.9533C78.9533 10.66 77.87 9.57667 75.53 9.57667H59.8867V13H56.94V0H78.6933C80.7777 0 81.9 1.12233 81.9 3.20667V5.3794C81.9 7.37533 80.8708 8.489 78.9533 8.58ZM78.4333 6.71667C78.7713 6.71667 78.9533 6.53467 78.9533 6.19667V3.38C78.9533 3.042 78.7713 2.86 78.4333 2.86H59.8867V6.71667H78.4333ZM85.4533 3.20667C85.4533 1.12233 86.5757 0 88.66 0H109.98V2.42667H88.92C88.582 2.42667 88.4 2.60867 88.4 2.94667V4.76667C88.4 5.10467 88.582 5.28667 88.92 5.28667H107.207C109.291 5.28667 110.413 6.409 110.413 8.49333V9.79333C110.413 11.8777 109.291 13 107.207 13H85.8867V10.5733H106.947C107.285 10.5733 107.467 10.3913 107.467 10.0533V8.23333C107.467 7.89533 107.285 7.71333 106.947 7.71333H88.66C86.5757 7.71333 85.4533 6.591 85.4533 4.50667V3.20667ZM114.097 3.20667C114.097 1.12233 115.219 0 117.303 0H138.103V2.86H117.563C117.225 2.86 117.043 3.042 117.043 3.38V9.62C117.043 9.958 117.225 10.14 117.563 10.14H138.103V13H117.303C115.219 13 114.097 11.8777 114.097 9.79333V3.20667ZM165.403 0V13H162.457V7.93H144.82V13H141.873V0H144.82V5.07H162.457V0H165.403ZM172.163 2.42667V5.28667H195V7.71333H172.163V10.5733H195V13H169.217V0H195V2.42667H172.163Z" fill="#0C0C0C"/>
</svg>
